<svg xmlns="http://www.w3.org/2000/svg" viewBox="0 0 512 512">
  <rect width="512" height="512" rx="100" fill="#1e293b"/>
  <rect x="130" y="90" width="252" height="332" rx="18" fill="white"/>
  <rect x="162" y="148" width="188" height="22" rx="8" fill="#2563eb"/>
  <rect x="162" y="192" width="188" height="14" rx="6" fill="#e2e8f0"/>
  <rect x="162" y="218" width="140" height="14" rx="6" fill="#e2e8f0"/>
  <rect x="162" y="244" width="160" height="14" rx="6" fill="#e2e8f0"/>
  <rect x="162" y="286" width="188" height="2" rx="1" fill="#e2e8f0"/>
  <rect x="162" y="306" width="90" height="16" rx="6" fill="#e2e8f0"/>
  <rect x="282" y="306" width="68" height="16" rx="6" fill="#2563eb"/>
  <rect x="162" y="334" width="110" height="14" rx="6" fill="#e2e8f0"/>
  <rect x="162" y="358" width="78" height="14" rx="6" fill="#e2e8f0"/>
  <!-- torn bottom -->
  <path d="M130 390 L130 422 L155 410 L180 422 L205 410 L230 422 L255 410 L280 422 L305 410 L330 422 L355 410 L382 422 L382 390 Z" fill="#1e293b"/>
</svg>
